<svg width="167" height="48" viewBox="0 0 167 48" fill="none" xmlns="http://www.w3.org/2000/svg">
<circle cx="22.5" cy="24.2499" r="20.5" stroke="#008880" stroke-width="3"/>
<path d="M30.6317 32.3817C26.4923 36.5211 21.8028 39.2233 17.6264 40.2972C13.4123 41.3809 10.0157 40.7571 8.0043 38.7457C5.9929 36.7343 5.36911 33.3376 6.45273 29.1235C7.52666 24.9472 10.2289 20.2577 14.3683 16.1183C18.5077 11.9789 23.1972 9.27665 27.3736 8.20273C31.5876 7.1191 34.9843 7.74289 36.9957 9.7543C39.0071 11.7657 39.6309 15.1623 38.5473 19.3764C37.4733 23.5528 34.7711 28.2423 30.6317 32.3817Z" stroke="#008880" stroke-width="3"/>
<path d="M30.6316 16.1182C34.771 20.2576 37.4732 24.9471 38.5471 29.1235C39.6307 33.3376 39.0069 36.7342 36.9955 38.7456C34.9841 40.757 31.5875 41.3808 27.3734 40.2972C23.197 39.2233 18.5075 36.5211 14.3681 32.3817C10.2287 28.2423 7.5265 23.5528 6.45257 19.3764C5.36895 15.1623 5.99274 11.7657 8.00415 9.75426C10.0156 7.74285 13.4122 7.11906 17.6263 8.20269C21.8026 9.27661 26.4922 11.9788 30.6316 16.1182Z" stroke="#008880" stroke-width="3"/>
<path d="M63.35 34.24C68.06 34.24 71.24 31.78 71.24 27.85C71.24 19.54 60.2 23.08 60.2 18.7C60.2 17.47 61.31 16.63 63.08 16.63C65.09 16.63 66.35 17.71 66.5 19.36H70.79C70.67 15.37 67.61 12.76 63.08 12.76C58.82 12.76 55.82 15.22 55.82 18.7C55.82 26.95 66.71 23.8 66.71 27.91C66.71 29.5 65.36 30.34 63.35 30.34C61.13 30.34 59.72 28.99 59.54 26.86H55.22C55.4 31.33 58.58 34.24 63.35 34.24Z" fill="#008880"/>
<path d="M72.2602 40.12H76.4302V32.65C77.2402 33.67 78.7102 34.24 80.4202 34.24C84.7702 34.24 87.7102 31.15 87.7102 26.44C87.7102 21.73 85.0102 18.64 80.7802 18.64C78.8302 18.64 77.3302 19.36 76.4302 20.53V18.88H72.2602V40.12ZM79.9102 30.64C77.6602 30.64 76.1902 28.96 76.1902 26.44C76.1902 23.89 77.6602 22.21 79.9102 22.21C82.1002 22.21 83.6002 23.89 83.6002 26.44C83.6002 28.96 82.1002 30.64 79.9102 30.64Z" fill="#008880"/>
<path d="M88.7192 34H92.8892V25.72C92.8892 23.77 94.1792 22.36 96.0092 22.36C97.7492 22.36 98.9492 23.68 98.9492 25.51V34H103.119V24.58C103.119 21.1 100.899 18.64 97.5092 18.64C95.4092 18.64 93.7592 19.51 92.8892 20.98V12.31H88.7192V34Z" fill="#008880"/>
<path d="M114.785 28.87C114.454 30.16 113.345 30.82 111.665 30.82C109.565 30.82 108.215 29.5 107.915 27.37H118.774C118.804 27.04 118.835 26.59 118.835 26.02C118.835 22.57 116.705 18.64 111.365 18.64C106.235 18.64 103.895 22.57 103.895 26.41C103.895 30.22 106.535 34.24 111.665 34.24C115.385 34.24 118.264 32.14 118.865 28.87H114.785ZM111.365 21.7C113.375 21.7 114.545 23.05 114.665 24.73H107.975C108.335 22.63 109.475 21.7 111.365 21.7Z" fill="#008880"/>
<path d="M129.771 22.36V18.88H127.619C125.789 18.88 124.649 19.51 123.839 21.4V18.88H119.639V34H123.839V26.65C123.839 24.07 124.769 22.36 126.839 22.36H129.771Z" fill="#008880"/>
<path d="M144.171 18.88H139.971V27.16C139.971 29.08 138.681 30.52 136.851 30.52C135.141 30.52 133.941 29.2 133.941 27.37V18.88H129.771V28.3C129.771 31.75 131.991 34.24 135.381 34.24C137.451 34.24 139.131 33.34 139.971 31.9V34H144.171V18.88Z" fill="#008880"/>
<path d="M145.971 34H150.141V12.31H145.971V34Z" fill="#008880"/>
<path d="M162.046 28.87C161.716 30.16 160.606 30.82 158.926 30.82C156.826 30.82 155.476 29.5 155.176 27.37H166.036C166.066 27.04 166.096 26.59 166.096 26.02C166.096 22.57 163.966 18.64 158.626 18.64C153.496 18.64 151.156 22.57 151.156 26.41C151.156 30.22 153.796 34.24 158.926 34.24C162.646 34.24 165.526 32.14 166.126 28.87H162.046ZM158.626 21.7C160.636 21.7 161.806 23.05 161.926 24.73H155.236C155.596 22.63 156.736 21.7 158.626 21.7Z" fill="#008880"/>
</svg>
